<svg width="80" height="130" viewBox="0 0 80 130" fill="none" xmlns="http://www.w3.org/2000/svg">
<path d="M5.90688 39.583C6.07751 39.8255 6.26616 40.0525 6.45482 40.2815C6.82715 40.7804 7.25294 41.0811 7.68111 41.3955C8.11142 41.747 8.54138 41.9526 8.97293 42.1596C9.40537 42.3751 9.8426 42.5946 10.2634 42.7108L11.5414 43.1294C11.9622 43.2378 12.3778 43.3175 12.7965 43.4115C13.6382 43.6192 14.4587 43.7175 15.2814 43.8249C15.9697 43.9044 16.6516 43.9643 17.3327 44.0193C15.7428 47.0437 14.3632 50.1912 13.3204 53.5055C12.3571 56.6105 11.6637 59.8675 11.6697 63.2836C11.6471 64.9857 11.9119 66.7319 12.3671 68.4531C12.9351 70.1486 13.6966 71.8594 14.9278 73.2576C15.2298 73.6051 15.5204 73.978 15.8398 74.2969L16.8414 75.1764C17.4817 75.7978 18.2835 76.2154 19.0055 76.732C20.5553 77.5889 22.1919 78.3204 23.8943 78.6978C27.2884 79.5598 30.7466 79.5046 34.0292 78.9917C37.2816 78.4699 40.4087 77.5551 43.3959 76.3315C43.4669 76.639 43.5209 76.953 43.6006 77.2573C44.4248 80.4587 45.702 83.5051 47.265 86.3609C48.0171 87.8016 48.9331 89.1699 49.7895 90.509L52.3953 94.3904L62.818 109.916C63.2832 110.609 63.6941 111.194 64.0801 111.73C63.5113 111.449 62.9388 111.165 62.3747 110.886C60.1434 109.791 57.9588 108.719 55.8873 107.702C51.7348 105.688 48.0361 103.894 45.3254 102.579C42.8424 101.381 43.3697 106.153 45.3088 107.088L70.5091 119.246L69.0896 89.6445C69.0157 88.1042 67.6553 88.4571 66.7904 89.0306C66.3017 89.3546 66.0982 92.7284 66.0724 97.707C66.0595 100.196 66.0909 103.087 66.1534 106.198C66.1878 107.631 66.2236 109.116 66.2596 110.626C65.2808 108.919 63.4774 106.005 60.934 102.008C59.0593 99.0966 56.8166 95.6129 54.2534 91.6315C52.9604 89.6322 51.5505 87.5614 50.3254 85.3075C49.0666 83.0514 47.9793 80.5565 47.1869 77.8649C46.9028 76.9186 46.6772 75.9283 46.4831 74.9221C48.4295 73.9557 50.3154 72.8722 52.1231 71.6712C54.8266 69.8414 57.404 67.7866 59.6141 65.2239C60.7236 63.9546 61.7489 62.5541 62.52 60.8859C63.2714 59.2552 63.8544 57.2001 63.2812 54.9931C63.1923 54.4401 62.8857 53.9508 62.6489 53.4444C62.3988 52.9307 62.063 52.5928 61.7611 52.1681C61.0702 51.3949 60.2204 50.6704 59.1857 50.2378C58.1753 49.7439 57.0452 49.6226 55.9855 49.6255C54.9395 49.7006 53.9187 49.9054 53.0315 50.2899C49.4218 51.8 47.1008 54.6555 45.4264 57.6338C42.9308 62.2651 42.2195 67.5079 42.7457 72.5442C41.6911 72.9962 40.6218 73.4184 39.5284 73.7808C37.6674 74.4235 35.7462 74.9049 33.8057 75.2149C29.938 75.8797 25.8966 75.6891 22.4316 74.2114C20.7348 73.456 19.1553 72.2953 17.9987 70.9299C16.8604 69.5762 16.0743 67.9009 15.7808 66.0237C15.1604 62.2699 15.8955 58.1384 17.2024 54.2241C18.3527 50.7779 19.9027 47.4369 21.7107 44.2109C22.8058 44.2205 23.9005 44.2127 24.9991 44.168C28.222 44.0288 31.4505 43.7364 34.6291 43.1108C40.9891 41.9294 47.2141 39.7697 52.8331 36.4176C55.638 34.7421 58.2979 32.7796 60.6595 30.4287C62.9626 28.034 65.1311 25.3381 66.2039 21.7814C66.6993 20.0202 66.881 17.9012 66.0265 15.8585C65.1718 13.7927 63.28 12.4052 61.5147 11.7184C59.7092 11.0145 57.9388 10.8501 56.2036 10.7536C54.399 10.7766 52.6199 10.986 50.9755 11.4804C47.6567 12.4135 44.7004 13.9826 41.9639 15.7619C39.2359 17.5598 36.6964 19.5767 34.3517 21.7717C29.6397 26.1433 25.5198 31.0559 21.9294 36.3336C21.1073 37.5682 20.311 38.8232 19.5434 40.0973C17.1274 39.9926 14.7965 39.7582 12.7107 39.2396C11.3194 38.8481 10.0121 38.2388 9.54253 37.6177C9.26235 37.3272 9.25711 37.0734 9.2168 36.7019C9.25933 36.3054 9.35911 35.8013 9.64205 35.2592C10.1652 34.1779 11.0064 33.0599 11.9474 32.0458C12.8952 31.0288 13.8929 30.0552 14.9458 29.1572C17.0242 27.3398 19.1926 25.7431 21.2819 24.2795C24.5583 22.0174 26.2087 20.7606 26.5606 20.095C26.9151 19.4441 26.024 19.3633 24.3249 19.8264C20.9731 20.7634 14.433 23.7347 9.67738 28.5167C8.52406 29.7085 7.39853 30.962 6.46299 32.5383C5.99761 33.3274 5.58568 34.2088 5.31286 35.2312C5.20402 35.7604 5.12829 36.3371 5.12714 36.9156C5.21103 37.526 5.21423 38.1539 5.51013 38.7252C5.63273 39.016 5.7659 39.3035 5.90688 39.583ZM47.931 60.3553C49.2614 57.5692 51.3849 54.8341 54.1636 53.6313C54.8447 53.3195 55.5475 53.2009 56.2151 53.1599C56.8826 53.1572 57.4886 53.3341 58.0397 53.6362C58.5956 53.9386 59.037 54.4825 59.4554 55.062C59.7052 55.6242 59.9811 56.1745 59.8986 56.8736C59.8945 58.2309 59.1376 59.8021 58.1457 61.2139C57.1531 62.6478 55.8673 63.9725 54.4894 65.2122C51.9976 67.4399 49.0998 69.3645 46.0035 70.9818C45.8321 67.4526 46.3418 63.7881 47.931 60.3553ZM29.8311 32.3832C35.2307 25.8836 41.5942 19.8681 48.9155 16.4515C50.7489 15.6743 52.6202 15.0692 54.4724 14.8322C56.2465 14.6707 58.2892 14.8319 59.8375 15.3886C60.2514 15.5042 60.5457 15.7339 60.9132 15.8832C61.1643 16.1241 61.5326 16.2776 61.7036 16.5525C62.1867 17.0115 62.4086 17.6005 62.5218 18.2783C62.7465 19.6501 62.2272 21.3919 61.3434 22.9612C59.5797 26.1595 56.6772 28.8657 53.6128 31.0831C50.5193 33.3165 47.0957 35.034 43.6202 36.3902C37.2035 38.8732 30.5337 39.9434 24.1573 40.1323C25.9016 37.4455 27.8154 34.8572 29.8311 32.3832Z" fill="#2881F8"/>
</svg>
